<svg width="21" height="21" viewBox="0 0 21 21" fill="none" xmlns="http://www.w3.org/2000/svg">
<path d="M17.3 15.4C17.7 14.7 18 13.9 18 13C18 10.5 16 8.5 13.5 8.5C11 8.5 9 10.5 9 13C9 15.5 11 17.5 13.5 17.5C14.4 17.5 15.2 17.2 15.9 16.8L19.1 20L20.5 18.6L17.3 15.4ZM13.5 15.5C12.1 15.5 11 14.4 11 13C11 11.6 12.1 10.5 13.5 10.5C14.9 10.5 16 11.6 16 13C16 14.4 14.9 15.5 13.5 15.5ZM10 18.5V20.5C4.48 20.5 0 16.02 0 10.5C0 4.98 4.48 0.5 10 0.5C14.84 0.5 18.87 3.94 19.8 8.5H17.73C17.4181 7.29184 16.8279 6.17338 16.0066 5.23401C15.1853 4.29465 14.1557 3.56042 13 3.09V3.5C13 4.6 12.1 5.5 11 5.5H9V7.5C9 8.05 8.55 8.5 8 8.5H6V10.5H8V13.5H7L2.21 8.71C2.08 9.29 2 9.88 2 10.5C2 14.91 5.59 18.5 10 18.5Z" fill="white"/>
</svg>
